# AST/ASF file generated using VICON BodyLanguage
# -----------------------------------------------
:version 1.10
:name VICON
:units
  mass 1.0
  length 0.45
  angle deg
:documentation
   .ast/.asf automatically generated from VICON data using
   VICON BodyBuilder and BodyLanguage model FoxedUp or BRILLIANT.MOD
:root
   order TX TY TZ RX RY RZ
   axis XYZ
   position 0 0 0  
   orientation 0 0 0 
:bonedata
  begin
     id 1 
     name lhipjoint
     direction 0.567149 -0.783011 0.255413 
     length 2.28399 
     axis 0 0 0  XYZ
  end
  begin
     id 2 
     name lfemur
     direction 0.34202 -0.939693 0  
     length 7.34031  
     axis 0 0 20  XYZ
    dof rx ry rz
    limits (-160.0 20.0)
           (-70.0 70.0)
           (-60.0 70.0)
  end
  begin
     id 3 
     name ltibia
     direction 0.34202 -0.939693 0   
     length 6.9833   
     axis 0 0 20   XYZ
    dof rx
    limits (-10.0 170.0)
  end
  begin
     id 4 
     name lfoot
     direction 0.136498 -0.375025 0.91691   
     length 2.33665   
     axis -90 7.62852e-016 20   XYZ
    dof rx rz
    limits (-45.0 90.0)
           (-70.0 20.0)
  end
  begin
     id 5 
     name ltoes
     direction 1.5367e-011 -4.21617e-011 1   
     length 1.15039   
     axis -90 7.62852e-016 20   XYZ
    dof rx
    limits (-90.0 20.0)
  end
  begin
     id 6 
     name rhipjoint
     direction -0.602854 -0.758518 0.247423   
     length 2.35775  
     axis 0 0 0  XYZ 
  end
  begin
     id 7 
     name rfemur
     direction -0.34202 -0.939693 0   
     length 7.43932   
     axis 0 0 -20   XYZ
    dof rx ry rz
    limits (-160.0 20.0)
           (-70.0 70.0)
           (-70.0 60.0)
  end
  begin
     id 8 
     name rtibia
     direction -0.34202 -0.939693 0   
     length 7.11893   
     axis 0 0 -20   XYZ
    dof rx
    limits (-10.0 170.0)
 end
 begin
     id 9 
     name rfoot
     direction -0.131771 -0.362037 0.922803   
     length 2.53019  
     axis -90 -7.62852e-016 -20   XYZ
    dof rx rz
    limits (-45.0 90.0)
           (-20.0 70.0)
  end
  begin
     id 10 
     name rtoes
     direction -1.53733e-011 -4.21932e-011 1   
     length 1.24596   
     axis -90 -7.62852e-016 -20   XYZ
    dof rx
    limits (-90.0 20.0)
  end
  begin
     id 11 
     name lowerback
     direction 0.0235427 0.999023 -0.0374125   
     length 2.21768   
     axis 0 0 0   XYZ
    dof rx ry rz
    limits (-20.0 45.0)
           (-30.0 30.0)
           (-30.0 30.0)
  end
  begin
     id 12 
     name upperback
     direction 0.0302156 0.996818 -0.073759   
     length 2.20352   
     axis 0 0 0   XYZ
    dof rx ry rz
    limits (-20.0 45.0)
           (-30.0 30.0)
           (-30.0 30.0)
  end
  begin
     id 13 
     name thorax
     direction 0.0187169 0.998235 -0.0563532   
     length 2.22103   
     axis 0 0 0   XYZ
    dof rx ry rz
    limits (-20.0 45.0)
           (-30.0 30.0)
           (-30.0 30.0)
  end
  begin
     id 14 
     name lowerneck
     direction -0.119528 0.987423 0.103481   
     length 1.72948   
     axis 0 0 0   XYZ
    dof rx ry rz
    limits (-20.0 45.0)
           (-30.0 30.0)
           (-30.0 30.0)
  end
  begin
     id 15 
     name upperneck
     direction 0.248049 0.963095 -0.104496   
     length 1.74979   
     axis 0 0 0   XYZ
    dof rx ry rz
    limits (-20.0 45.0)
           (-30.0 30.0)
           (-30.0 30.0)
  end
  begin
     id 16
     name head
     direction 0.0903589 0.994284 -0.056876  
     length 1.78268  
     axis 0 0 0   XYZ
    dof rx ry rz
    limits (-20.0 45.0)
           (-30.0 30.0)
           (-30.0 30.0)
  end
  begin
     id 17 
     name lclavicle
     direction 0.946008 0.242039 -0.215608  
     length 3.80783  
     axis 0 0 0   XYZ
    dof ry rz
    limits (-20.0 10.0)
           (0.0 20.0)
  end
  begin
     id 18 
     name lhumerus
     direction 1 -4.48991e-011 -2.25695e-027   
     length 4.83125   
     axis 180 -30 -90   XYZ
    dof rx ry rz
    limits (-60.0 90.0)
           (-90.0 90.0)
           (-90.0 90.0)
  end
  begin
     id 19
     name lradius
     direction 0.999991 0.00366712 -0.00211721   
     length 3.00391   
     axis 180 -30 -90   XYZ
    dof rx
    limits (-10.0 170.0)
  end
  begin
     id 20
     name lwrist
     direction 0.999991 0.00393016 -0.00141978   
     length 1.50195   
     axis -1.00488e-014 90 90   XYZ
    dof ry
    limits (-180.0 0.0)
 end
  begin
     id 21 
     name lhand
     direction 1 -4.49123e-011 2.72098e-026   
     length 1.2717   
     axis -1.73687e-014 90 90   XYZ
    dof rx rz
    limits (-90.0 90.0)
           (-45.0 45.0)
  end
  begin
     id 22 
     name lfingers
     direction 1 -4.48678e-011 5.4479e-026   
     length 1.02528   
     axis -3.47372e-014 90 90   XYZ
    dof rx
    limits (0.0 90.0)
  end
  begin
     id 23
     name lthumb
     direction 0.707107 -6.34851e-011 0.707107   
     length 1.4721   
     axis -90 45 -1.62303e-014   XYZ
    dof rx rz
    limits (-45.0 45.0)
           (-45.0 45.0)
  end
  begin
     id 24 
     name rclavicle
     direction -0.981723 0.189447 -0.0181673   
     length 3.74989  
     axis 0 0 0   XYZ 
    dof ry rz
    limits (-10.0 20.0)
           (-20.0 0.0)
  end
  begin
     id 25 
     name rhumerus
     direction -1 -4.48985e-011 2.38206e-027  
     length 4.61118   
     axis 180 30 90   XYZ
    dof rx ry rz
    limits (-90.0 60.0)
           (-90.0 90.0)
           (-90.0 90.0)
  end
  begin
     id 26 
     name rradius
     direction -1 -4.48977e-011 7.41019e-027   
     length 2.91491   
     axis 180 30 90   XYZ
    dof rx
    limits (-10.0 170.0)
  end
  begin
     id 27 
     name rwrist
     direction -1 -4.48549e-011 1.3624e-026   
     length 1.45745   
     axis -1.00488e-014 -90 -90   XYZ
    dof ry
    limits (-180.0 0.0)
  end
  begin
     id 28
     name rhand
     direction -1 -4.49107e-011 2.72109e-026   
     length 1.30769   
     axis -1.73687e-014 -90 -90   XYZ
    dof rx rz
    limits (-90.0 90.0)
           (-45.0 45.0)
  end
  begin
     id 29
     name rfingers
     direction -1 -4.48919e-011 5.44468e-026   
     length 1.05429   
     axis -3.47372e-014 -90 -90   XYZ
    dof rx
    limits (0.0 90.0)
  end
  begin
     id 30
     name rthumb
     direction -0.707107 -6.35315e-011 0.707107   
     length 1.51376   
     axis -90 -45 1.62303e-014   XYZ
    dof rx rz
    limits (-45.0 45.0)
           (-45.0 45.0)
  end
:hierarchy
  begin
    root lhipjoint rhipjoint lowerback
    lhipjoint lfemur
    lfemur ltibia
    ltibia lfoot
    lfoot ltoes
    rhipjoint rfemur
    rfemur rtibia
    rtibia rfoot
    rfoot rtoes
    lowerback upperback
    upperback thorax
    thorax lowerneck lclavicle rclavicle
    lowerneck upperneck
    upperneck head
    lclavicle lhumerus
    lhumerus lradius
    lradius lwrist
    lwrist lhand lthumb
    lhand lfingers
    rclavicle rhumerus
    rhumerus rradius
    rradius rwrist
    rwrist rhand rthumb
    rhand rfingers
  end

#!OML:ASF X:\für Bonn\!DataBase\2005_08_11_Bastian_Final\c3d\Bastian.ASF
:FULLY-SPECIFIED
:DEGREES
17
root 2.28337 18.3114 -14.6804 718.44 -2.16368 -3.9696
lowerback -8.78383 -2.33325 -1.13177
upperback -0.0817164 -3.02531 0.693168
thorax 4.93645 -1.52956 0.964424
lowerneck -8.77989 -1.99112 -3.78572
upperneck -0.493866 -2.49059 8.55404
head 1.57002 -1.06213 3.36497
rclavicle -5.66536e-014 6.36111e-015
rhumerus -43.4855 27.3627 -85.7429
rradius 90.07
rwrist 0.647088
rhand -7.98418 20.3195
rfingers 7.12502
rthumb 17.9241 -8.87455
lclavicle -5.66536e-014 6.36111e-015
lhumerus -22.2668 -23.7809 67.3466
lradius 94.6192
lwrist -147.32
lhand -35.0975 5.83965
lfingers 7.12502
lthumb -8.23885 35.659
rfemur 3.65698 -0.0828656 27.7882
rtibia 37.7614
rfoot 1.13619 -6.3209
rtoes 26.5411
lfemur -0.0993587 4.19243 -14.2752
ltibia 43.8274
lfoot 7.11768 -10.4614
ltoes -22.2499
18
root 2.27858 18.6526 -14.4114 718.638 -1.94421 -4.02506
lowerback -10.0097 -2.52639 -1.20538
upperback -0.181166 -3.26439 0.761548
thorax 5.53614 -1.64907 0.993521
lowerneck -9.03745 -2.04412 -3.50529
upperneck 0.318837 -2.61657 7.96422
head 1.87164 -1.11912 3.10688
rclavicle 1.98785e-016 -3.97569e-015
rhumerus -44.259 28.0917 -85.4754
rradius 92.914
rwrist 1.96
rhand -8.16262 20.5764
rfingers 7.12502
rthumb 17.7524 -8.63323
lclavicle 1.98785e-016 -3.97569e-015
lhumerus -23.2989 -24.4424 66.6626
lradius 97.8368
lwrist -146.13
lhand -34.6849 5.36806
lfingers 7.12502
lthumb -7.84063 35.2027
rfemur 4.51729 1.86156 28.7655
rtibia 36.1918
rfoot 3.44051 -10.7757
rtoes 28.3446
lfemur 0.349541 3.18781 -14.8858
ltibia 42.6182
lfoot 10.7778 -8.41053
ltoes -24.5135
19
root 2.2741 18.9939 -14.1663 719.157 -1.83435 -4.05335
lowerback -11.1632 -2.60531 -1.20162
upperback -0.304654 -3.35661 0.767644
thorax 6.05695 -1.69245 0.935393
lowerneck -9.74524 -2.16293 -3.34679
upperneck 1.22073 -2.81787 7.57154
head 2.29996 -1.20108 2.93947
rclavicle 3.42407e-014 -1.35174e-014
rhumerus -45.1484 28.3923 -85.1007
rradius 96.0186
rwrist 3.31087
rhand -8.41908 20.6382
rfingers 7.12502
rthumb 17.5056 -8.59361
lclavicle 3.42407e-014 -1.35174e-014
lhumerus -24.1609 -25.0807 66.0474
lradius 100.677
lwrist -145.078
lhand -34.008 5.84583
lfingers 7.12502
lthumb -7.18728 35.7038
rfemur 4.51014 3.86417 29.6455
rtibia 35.3505
rfoot 5.14989 -15.0282
rtoes 32.7831
lfemur 0.0426133 2.41405 -15.5227
ltibia 42.1104
lfoot 13.7563 -6.6691
ltoes -27.0565
20
root 2.27361 19.3302 -13.9451 719.895 -1.80188 -4.17787
lowerback -12.1216 -2.58235 -0.933439
upperback -0.463095 -3.34792 0.714667
thorax 6.40781 -1.67699 0.69242
lowerneck -10.6707 -2.31717 -3.2758
upperneck 2.09325 -3.05796 7.38084
head 2.7752 -1.29516 2.856
rclavicle -5.06901e-014 1.19271e-014
rhumerus -46.3349 28.4293 -84.759
rradius 99.4318
rwrist 4.33162
rhand -8.38558 20.4543
rfingers 7.12502
rthumb 17.5378 -8.7747
lclavicle -5.06901e-014 1.19271e-014
lhumerus -24.9873 -25.69 65.4595
lradius 103.341
lwrist -144.409
lhand -33.1827 7.08286
lfingers 7.12502
lthumb -6.39057 36.9665
rfemur 3.8492 5.44127 30.3508
rtibia 35.214
rfoot 6.1056 -18.9035
rtoes 37.1796
lfemur -0.917639 2.04994 -15.9427
ltibia 42.2395
lfoot 16.1029 -5.61358
ltoes -30.04
21
root 2.27502 19.6554 -13.7419 720.696 -1.84934 -4.36275
lowerback -12.8082 -2.47762 -0.541931
upperback -0.593512 -3.25621 0.672059
thorax 6.62705 -1.61754 0.417746
lowerneck -11.723 -2.47462 -3.44624
upperneck 2.85412 -3.27336 7.42622
head 3.25743 -1.37148 2.90006
rclavicle 4.59193e-014 0
rhumerus -47.7459 28.2082 -84.4064
rradius 103.064
rwrist 4.97266
rhand -7.85905 20.3149
rfingers 7.12502
rthumb 18.0445 -8.86804
lclavicle 4.59193e-014 0
lhumerus -25.7346 -26.1768 65.027
lradius 105.74
lwrist -144.051
lhand -32.9876 7.70536
lfingers 7.12502
lthumb -6.20229 37.5946
rfemur 2.78944 6.3417 30.7749
rtibia 35.7255
rfoot 6.17556 -22.2934
rtoes 41.7136
lfemur -2.29779 1.94533 -16.2119
ltibia 42.9411
lfoot 17.977 -5.22304
ltoes -31.4277
22
root 2.27933 19.9641 -13.5536 721.334 -1.96337 -4.75109
lowerback -13.0446 -2.28634 0.152683
upperback -0.603249 -3.1001 0.611861
thorax 6.70572 -1.51836 -0.0164958
lowerneck -12.9774 -2.63903 -3.56121
upperneck 3.83083 -3.5229 7.78268
head 3.45079 -1.42465 2.72094
rclavicle -1.42628e-014 -6.36111e-015
rhumerus -49.0604 27.8234 -84.1807
rradius 106.629
rwrist 4.99053
rhand -7.53971 20.6084
rfingers 7.12502
rthumb 18.3517 -8.54589
lclavicle -1.42628e-014 -6.36111e-015
lhumerus -26.4808 -26.5138 64.5723
lradius 107.96
lwrist -143.854
lhand -33.0669 8.29573
lfingers 7.12502
lthumb -6.27879 38.1827
rfemur 1.5869 6.41847 31.1197
rtibia 36.7569
rfoot 6.08552 -24.4922
rtoes 44.3239
lfemur -3.75218 1.88398 -16.2001
ltibia 44.1178
lfoot 19.4276 -5.5069
ltoes -31.8556
23
root 2.28655 20.2565 -13.3777 721.711 -2.07446 -5.01564
lowerback -12.7722 -2.09031 0.730242
upperback -0.500362 -2.91858 0.528783
thorax 6.6284 -1.41168 -0.386253
lowerneck -14.0778 -2.82066 -4.00529
upperneck 4.3105 -3.72908 8.18845
head 3.80263 -1.48096 2.89507
rclavicle -1.56543e-014 1.19271e-015
rhumerus -50.1532 27.4832 -84.0315
rradius 109.883
rwrist 4.16577
rhand -7.32869 21.0065
rfingers 7.12502
rthumb 18.5547 -8.12858
lclavicle -1.56543e-014 1.19271e-015
lhumerus -27.3362 -26.5166 64.3353
lradius 110.017
lwrist -143.96
lhand -33.0336 8.76087
lfingers 7.12502
lthumb -6.24663 38.6488
rfemur 0.381067 5.91352 31.1704
rtibia 38.3046
rfoot 6.06191 -25.7063
rtoes 45.3259
lfemur -5.12985 1.93659 -16.2126
ltibia 45.6044
lfoot 20.5938 -6.49276
ltoes -31.6212
24
root 2.29643 20.5316 -13.2121 721.792 -2.26375 -5.02301
lowerback -12.0534 -1.8876 1.0629
upperback -0.278412 -2.68147 0.382078
thorax 6.43999 -1.28564 -0.662458
lowerneck -15.1171 -3.01062 -4.49149
upperneck 4.67882 -3.92369 8.56819
head 4.1124 -1.53485 3.06968
rclavicle 3.762e-014 -1.07344e-014
rhumerus -51.1473 27.2594 -84.0714
rradius 112.26
rwrist 3.61875
rhand -8.29456 22.1855
rfingers 7.12502
rthumb 17.6254 -7.03556
lclavicle 3.762e-014 -1.07344e-014
lhumerus -28.3277 -26.1759 64.2917
lradius 111.997
lwrist -144.28
lhand -33.2994 8.75476
lfingers 7.12502
lthumb -6.50326 38.6349
rfemur -0.687425 5.12898 30.8607
rtibia 40.3171
rfoot 5.85555 -26.4579
rtoes 45.7471
lfemur -6.3066 2.12096 -16.3852
ltibia 47.3049
lfoot 21.579 -7.53536
ltoes -30.1436
25
root 2.30883 20.8002 -13.0552 721.593 -2.50938 -4.96384
lowerback -10.8985 -1.69479 1.33566
upperback -0.0170658 -2.43776 0.222366
thorax 6.05219 -1.16021 -0.906307
lowerneck -15.8254 -3.16083 -5.04595
upperneck 4.86821 -4.0461 8.988
head 4.31382 -1.56166 3.27672
rclavicle -2.08724e-015 1.59028e-015
rhumerus -52.3041 27.1139 -84.3588
rradius 114.111
rwrist 3.13061
rhand -9.56121 23.6399
rfingers 7.12502
rthumb 16.4062 -5.68631
lclavicle -2.08724e-015 1.59028e-015
lhumerus -29.6635 -25.7557 64.6214
lradius 113.525
lwrist -144.226
lhand -33.1195 8.52692
lfingers 7.12502
lthumb -6.32958 38.4124
rfemur -1.66124 4.10195 30.412
rtibia 42.8149
rfoot 5.30793 -27.1273
rtoes 46.7372
lfemur -7.26423 2.59154 -16.4938
ltibia 49.1236
lfoot 22.5151 -8.80986
ltoes -27.8544
26
root 2.32208 21.0497 -12.9093 721.206 -2.77041 -4.96171
lowerback -9.43705 -1.54038 1.58749
upperback 0.292097 -2.23666 0.145946
thorax 5.54591 -1.05877 -1.05408
lowerneck -16.3399 -3.2728 -5.66029
upperneck 4.90667 -4.08978 9.35479
head 4.43282 -1.56057 3.4858
rclavicle 4.34593e-014 -1.82882e-014
rhumerus -53.393 27.0205 -84.704
rradius 115.657
rwrist 2.42307
rhand -10.2539 24.8144
rfingers 7.12502
rthumb 15.7391 -4.56561
lclavicle 4.34593e-014 -1.82882e-014
lhumerus -31.2238 -25.1348 65.2295
lradius 114.869
lwrist -144.082
lhand -32.9926 8.30159
lfingers 7.12502
lthumb -6.20707 38.1907
rfemur -2.70988 3.0068 29.9945
rtibia 45.6797
rfoot 4.55703 -28.0736
rtoes 47.6758
lfemur -8.11132 3.29045 -16.4325
ltibia 51.0493
lfoot 23.4286 -10.4074
ltoes -25.4838
